<svg width="24" height="24" viewBox="0 0 24 24" fill="none" xmlns="http://www.w3.org/2000/svg">
<g clip-path="url(#clip0_36_1114)">
<path d="M4.0559 16.5886L2.73588 17.5H4.34H13.66H15.2641L13.9441 16.5886C13.4614 16.2553 12.6862 15.9243 11.8242 15.6769C10.9547 15.4274 9.95234 15.25 9 15.25C8.04766 15.25 7.04534 15.4274 6.17582 15.6769C5.31375 15.9243 4.53858 16.2553 4.0559 16.5886ZM2.5 17.25C2.5 16.8508 2.69558 16.4647 3.10396 16.0874C3.51582 15.707 4.11023 15.37 4.8084 15.0904C6.20553 14.5308 7.89232 14.25 9 14.25C10.1077 14.25 11.7945 14.5308 13.1916 15.0904C13.8898 15.37 14.4842 15.707 14.896 16.0874C15.3044 16.4647 15.5 16.8508 15.5 17.25V18.5H2.5V17.25ZM12 8.5C12 10.1539 10.6539 11.5 9 11.5C7.34614 11.5 6 10.1539 6 8.5C6 6.84614 7.34614 5.5 9 5.5C10.6539 5.5 12 6.84614 12 8.5ZM11 8.5C11 7.39386 10.1061 6.5 9 6.5C7.89386 6.5 7 7.39386 7 8.5C7 9.60614 7.89386 10.5 9 10.5C10.1061 10.5 11 9.60614 11 8.5ZM18.5 17.25C18.5 16.1995 18.1433 15.3174 17.575 14.5841C18.3246 14.7621 19.077 15.0095 19.7242 15.3236C20.8858 15.8872 21.5 16.556 21.5 17.25V18.5H18.5V17.25ZM18 8.5C18 10.1539 16.6539 11.5 15 11.5C14.7399 11.5 14.4897 11.4645 14.2485 11.3987C14.7273 10.5396 15 9.5489 15 8.5C15 7.4511 14.7273 6.46042 14.2485 5.60132C14.4897 5.53546 14.7399 5.5 15 5.5C16.6539 5.5 18 6.84614 18 8.5Z" fill="#2D3748" stroke="#2D3748"/>
</g>
<defs>
<clipPath id="clip0_36_1114">
<rect width="24" height="24" fill="white"/>
</clipPath>
</defs>
</svg>
